<svg xmlns="http://www.w3.org/2000/svg" version="1.1" xmlns:xlink="http://www.w3.org/1999/xlink" xmlns:svgjs="http://svgjs.dev/svgjs" width="128" height="128" viewBox="0 0 128 128"><g transform="matrix(0.8046875,0,0,0.8046875,12.221578124999994,12.221578124999994)"><svg viewBox="0 0 96 96" data-background-color="#ffffff" preserveAspectRatio="xMidYMid meet" height="128" width="128" xmlns="http://www.w3.org/2000/svg" xmlns:xlink="http://www.w3.org/1999/xlink"><g id="tight-bounds" transform="matrix(1,0,0,1,0.25950000000000273,0.25950000000000273)"><svg viewBox="0 0 95.481 95.481" height="95.481" width="95.481"><g><svg viewBox="0 0 95.481 95.481" height="95.481" width="95.481"><g><svg viewBox="0 0 95.481 95.481" height="95.481" width="95.481"><g id="textblocktransform"><svg viewBox="0 0 95.481 95.481" height="95.481" width="95.481" id="textblock"><g><svg viewBox="0 0 95.481 95.481" height="95.481" width="95.481"><g><svg viewBox="0 0 95.481 95.481" height="95.481" width="95.481"><g><svg xmlns="http://www.w3.org/2000/svg" xmlns:xlink="http://www.w3.org/1999/xlink" version="1.1" x="0" y="0" viewBox="0 0 100 100" style="enable-background:new 0 0 100 100;" xml:space="preserve" height="95.481" width="95.481" class="icon-icon-0" data-fill-palette-color="accent" id="icon-0"><path d="M93 68H83V59.541C90.959 49.397 95 39.124 95 29 95 16.318 84.682 6 72 6 61.653 6 52.881 12.868 50 22.284 47.12 12.868 38.347 6 28 6 16.584 6 7.088 14.361 5.305 25.281L5.293 25.293A0.99 0.99 0 0 0 5.141 26.479 23 23 0 0 0 5 29C5 29.872 5.036 30.735 5.093 31.594A0.98 0.98 0 0 0 5.165 32.514C6.289 44.945 13.213 55.912 21.277 64.683 21.284 64.69 21.286 64.7 21.293 64.706 21.297 64.71 21.304 64.712 21.308 64.716 33.58 78.051 48.464 86.301 49.521 86.878A1 1 0 0 0 50.479 86.878C50.602 86.811 53.26 85.352 57.27 82.672A1 1 0 0 0 58 83H68V93A1 1 0 0 0 69 94H82A1 1 0 0 0 83 93V83H93A1 1 0 0 0 94 82V69A1 1 0 0 0 93 68M86.586 70L70 86.586V82A1 1 0 0 0 69.874 81.54L81.54 69.874C81.68 69.947 81.831 70 82 70zM62.414 81L81 62.414V67.586L67.586 81zM59 81V77.414L66.414 70H69A1 1 0 0 0 70 69V66.414L77.414 59H81V59.586L59.586 81zM59 74.586V70H63.586zM70 63.586V59H74.586zM50.001 84.852A107 107 0 0 1 44.194 81.221L46.707 78.707A0.999 0.999 0 1 0 45.293 77.293L42.51 80.076A136 136 0 0 1 38.338 77.076L41.707 73.707A0.999 0.999 0 1 0 40.293 72.293L36.732 75.854A126 126 0 0 1 33.305 73.11L36.707 69.708A0.999 0.999 0 1 0 35.293 68.294L31.771 71.815A113 113 0 0 1 27.99 68.424L31.707 64.707A0.999 0.999 0 1 0 30.293 63.293L26.542 67.045A99 99 0 0 1 23.486 63.928L27.707 59.707A0.999 0.999 0 1 0 26.293 58.293L22.133 62.453A86 86 0 0 1 19.284 59.129L23.706 54.707A0.999 0.999 0 1 0 22.292 53.293L18.043 57.542A70 70 0 0 1 15.428 53.892 1 1 0 0 0 15.706 53.707L20.206 49.207A0.999 0.999 0 1 0 18.792 47.793L14.347 52.238A59 59 0 0 1 12.418 48.898 1 1 0 0 0 12.706 48.707L17.706 43.707A0.999 0.999 0 1 0 16.292 42.293L11.487 47.098A49 49 0 0 1 9.905 43.508L16.705 36.708A0.999 0.999 0 1 0 15.291 35.294L9.147 41.438A42 42 0 0 1 8.003 37.5 1 1 0 0 0 8.682 37.23L16.682 29.73A1 1 0 1 0 15.313 28.271L7.605 35.498A38 38 0 0 1 7.159 32.253L17.704 21.708A0.999 0.999 0 1 0 16.29 20.294L7.019 29.565C7.019 29.375 7 29.189 7 29 7 28.05 7.085 27.123 7.208 26.206L20.707 12.707A0.999 0.999 0 1 0 19.293 11.293L8.016 22.57C10.739 14.128 18.664 8 28 8 39.58 8 49 17.42 49 29A1 1 0 0 0 51 29C51 17.42 60.42 8 72 8S93 17.42 93 29C93 38.26 89.428 47.696 82.379 57.074A1 1 0 0 0 82 57H69A1 1 0 0 0 68 58V68H58A1 1 0 0 0 57 69V80.442C53.61 82.746 51.025 84.267 50.001 84.852M75.414 92L81 86.414V92zM82 81A1 1 0 0 0 81 82V83.586L72.586 92H70V89.414L89.414 70H92V72.586L83.586 81zM86.414 81L92 75.414V81z" fill="#f500a2" data-fill-palette-color="accent"></path></svg></g></svg></g></svg></g></svg></g></svg></g></svg></g><defs></defs></svg><rect width="95.481" height="95.481" fill="none" stroke="none" visibility="hidden"></rect></g></svg></g></svg>